<?xml version="1.0" encoding="UTF-8" standalone="no"?>
<!-- Created with Inkscape (http://www.inkscape.org/) -->

<svg
   width="32"
   height="32"
   viewBox="0 0 8.467 8.467"
   version="1.1"
   id="svg1"
   inkscape:version="1.3.2 (091e20ef0f, 2023-11-25)"
   sodipodi:docname="favicon.svg"
   inkscape:export-filename="favicon.ico"
   inkscape:export-xdpi="96"
   inkscape:export-ydpi="96"
   xmlns:inkscape="http://www.inkscape.org/namespaces/inkscape"
   xmlns:sodipodi="http://sodipodi.sourceforge.net/DTD/sodipodi-0.dtd"
   xmlns="http://www.w3.org/2000/svg"
   xmlns:svg="http://www.w3.org/2000/svg">
  <sodipodi:namedview
     id="namedview1"
     pagecolor="#505050"
     bordercolor="#ffffff"
     borderopacity="1"
     inkscape:showpageshadow="0"
     inkscape:pageopacity="0"
     inkscape:pagecheckerboard="1"
     inkscape:deskcolor="#505050"
     inkscape:document-units="mm"
     inkscape:zoom="13.888019"
     inkscape:cx="-3.8522413"
     inkscape:cy="24.26552"
     inkscape:window-width="1920"
     inkscape:window-height="1001"
     inkscape:window-x="0"
     inkscape:window-y="0"
     inkscape:window-maximized="1"
     inkscape:current-layer="layer1"
     inkscape:export-bgcolor="#ffffff00" />
  <defs
     id="defs1" />
  <g
     inkscape:label="Layer 1"
     inkscape:groupmode="layer"
     id="layer1">
    <path
       id="path2"
       style="stroke-width:0.256144"
       d="M 4.2335 0.14418292 A 4.0889751 4.0889751 0 0 0 0.14418292 4.2335 A 4.0889751 4.0889751 0 0 0 4.2335 8.3223003 A 4.0889751 4.0889751 0 0 0 8.3223003 4.2335 A 4.0889751 4.0889751 0 0 0 4.2335 0.14418292 z M 4.2335 1.4826552 A 2.7508476 2.7508476 0 0 1 6.9843448 4.2335 A 2.7508476 2.7508476 0 0 1 4.2335 6.9843448 A 2.7508476 2.7508476 0 0 1 1.4826552 4.2335 A 2.7508476 2.7508476 0 0 1 4.2335 1.4826552 z " />
    <path
       id="path2-5"
       style="fill:none;stroke:#000000;stroke-width:0.256548;stroke-linecap:round;stroke-miterlimit:3.5;stroke-dasharray:0.256548, 2.30893;stroke-opacity:1"
       d="M 8.3223138,4.2333331 A 4.0889751,4.0889751 0 0 1 4.2333386,8.3223083 4.0889751,4.0889751 0 0 1 0.14436353,4.2333331 4.0889751,4.0889751 0 0 1 4.2333386,0.14435797 4.0889751,4.0889751 0 0 1 8.3223138,4.2333331 Z" />
    <path
       id="path11"
       style="fill:#d9d9d9;stroke-width:0.256547;stroke-linecap:round;stroke-miterlimit:3.5"
       d="m 4.2333333,1.2314494 a 3.0019736,3.0019736 0 0 0 -3.0018839,3.0018839 3.0019736,3.0019736 0 0 0 3.0018839,3.001884 3.0019736,3.0019736 0 0 0 3.001884,-3.001884 3.0019736,3.0019736 0 0 0 -3.001884,-3.0018839 z m 0.00775,0.4123779 A 2.589842,2.589842 0 0 1 6.8150879,3.9532471 H 4.402832 L 3.1879191,1.8691366 A 2.589842,2.589842 0 0 1 4.2410848,1.6438273 Z M 2.7135295,2.1497396 3.9175903,4.2333333 2.7124959,6.3158936 A 2.589842,2.589842 0 0 1 1.651062,4.2333333 2.589842,2.589842 0 0 1 2.7135295,2.1497396 Z M 6.8156047,4.5098022 A 2.589842,2.589842 0 0 1 4.2410848,6.8228394 2.589842,2.589842 0 0 1 3.1972209,6.6011475 L 4.402832,4.5134196 Z" />
    <path
       id="path12"
       style="fill:#d9d9d9;stroke-width:0.438102;stroke-linecap:round;stroke-miterlimit:3.5"
       d="M 5.5207785,4.2335 A 1.2872785,1.2872785 0 0 1 4.2335,5.5207785 1.2872785,1.2872785 0 0 1 2.9462215,4.2335 1.2872785,1.2872785 0 0 1 4.2335,2.9462215 1.2872785,1.2872785 0 0 1 5.5207785,4.2335 Z" />
  </g>
</svg>
